<?xml version="1.0" encoding="UTF-8"?>
<svg version="1.1" xmlns="http://www.w3.org/2000/svg" width="512" height="512">
<path d="M0 0 C1.62851772 -0.00599079 3.25703262 -0.01279759 4.88554382 -0.02035522 C9.29023933 -0.03795766 13.69485705 -0.04270792 18.09958434 -0.0439868 C20.85286433 -0.04541121 23.6061247 -0.0496861 26.3593998 -0.05498123 C35.9678027 -0.07345617 45.57615024 -0.08165425 55.18457031 -0.08007812 C64.13814094 -0.07887454 73.09147138 -0.10002578 82.04498118 -0.13156545 C89.73943598 -0.15770349 97.43381212 -0.1684466 105.12831098 -0.16716731 C109.72103008 -0.16665733 114.31353512 -0.17236148 118.90620995 -0.19352341 C123.22128497 -0.21286643 127.53594066 -0.2130575 131.85103035 -0.19849014 C133.43408698 -0.19639666 135.01716962 -0.20113505 136.60018158 -0.21321106 C138.76175549 -0.22863314 140.92187749 -0.21937804 143.0834198 -0.20394897 C144.29256137 -0.20503851 145.50170294 -0.20612804 146.74748516 -0.2072506 C150.57700364 0.3911873 152.22817522 1.55772839 154.93286133 4.29052734 C156.2414348 8.21624776 156.07746673 11.95342852 156.07330322 16.04562378 C156.07627434 16.95120785 156.07924547 17.85679192 156.08230662 18.78981793 C156.09100678 21.8367759 156.09250298 24.88369464 156.09399414 27.93066406 C156.09862133 30.11015914 156.10364586 32.28965341 156.10903931 34.46914673 C156.12217368 40.39886745 156.12861014 46.32857684 156.13304996 52.25830984 C156.13597864 55.96049878 156.14008303 59.6626846 156.14455414 63.36487198 C156.15823097 74.94113777 156.16789707 86.51739646 156.17175603 98.09366977 C156.17241917 100.07225929 156.17241917 100.07225929 156.1730957 102.09082031 C156.17342785 103.08218295 156.17342785 103.08218295 156.1737667 104.09357311 C156.17746999 114.13890745 156.19229264 124.18418178 156.21411133 134.22949219 C156.23935867 145.89192767 156.25428651 157.55431598 156.25579715 169.21677983 C156.25684686 175.39125241 156.2627901 181.56562908 156.28061676 187.74007797 C156.2970542 193.5463527 156.299274 199.35245897 156.29047775 205.15874863 C156.28970509 207.29168142 156.2940801 209.42462311 156.303936 211.55753326 C156.31658797 214.46571254 156.31081545 217.37328906 156.300354 220.28146362 C156.31243861 221.55223356 156.31243861 221.55223356 156.32476735 222.84867561 C156.28569373 227.481997 155.95834778 230.54271534 152.93286133 234.29052734 C149.93286133 236.29052734 149.93286133 236.29052734 145.93286133 236.29052734 C145.93286133 242.89052734 145.93286133 249.49052734 145.93286133 256.29052734 C147.91286133 256.62052734 149.89286133 256.95052734 151.93286133 257.29052734 C154.20295802 258.86951637 154.81262158 259.70232751 155.36645508 262.41162109 C155.36774414 263.17603516 155.3690332 263.94044922 155.37036133 264.72802734 C155.38969727 265.48986328 155.4090332 266.25169922 155.42895508 267.03662109 C154.72634045 270.22881513 153.49863227 271.28298325 150.93286133 273.29052734 C147.68871117 273.79668522 147.68871117 273.79668522 143.76156616 273.80519104 C142.67671462 273.81560933 142.67671462 273.81560933 141.56994689 273.8262381 C139.14552037 273.84453986 136.72206894 273.83423536 134.29760742 273.82397461 C132.55956285 273.83103184 130.82152443 273.83977603 129.08349609 273.8500824 C124.35997129 273.872617 119.63678094 273.86962587 114.91322279 273.86076093 C110.96724026 273.85565339 107.02132072 273.86294231 103.07534468 273.870233 C93.76037901 273.88724744 84.44557707 273.88365358 75.13061523 273.86694336 C65.53300517 273.85004806 55.93585079 273.86581736 46.33829057 273.89816624 C38.0918032 273.92490453 29.8454573 273.93212588 21.59893095 273.92365116 C16.67677626 273.91873089 11.75489526 273.92088769 6.83277512 273.94143867 C2.19836193 273.95986042 -2.43539978 273.95375809 -7.06977844 273.92923927 C-8.76521356 273.92425054 -10.46069884 273.92767054 -12.1560936 273.94038773 C-23.03022976 274.0154616 -31.3436147 273.14308028 -39.94213867 265.85302734 C-46.68461012 257.72240001 -48.37610567 250.52953534 -48.32783508 240.24700928 C-48.33166063 239.37067691 -48.33548618 238.49434454 -48.33942765 237.59145665 C-48.34969556 234.67305092 -48.34577731 231.75484421 -48.34179688 228.83642578 C-48.34614685 226.73651448 -48.35133095 224.63660476 -48.35728455 222.53669739 C-48.37065674 216.84438024 -48.37125506 211.15212956 -48.36872125 205.45979977 C-48.36765008 200.70112045 -48.37253877 195.9424545 -48.37732667 191.18377805 C-48.38841625 179.95193558 -48.38886269 168.72012655 -48.3828125 157.48828125 C-48.37677586 145.91852327 -48.38907718 134.34888699 -48.41038257 122.77914977 C-48.42802431 112.83152931 -48.43399577 102.88394749 -48.43074483 92.93631196 C-48.42893554 87.00147075 -48.43153258 81.06671632 -48.44545937 75.13188934 C-48.45807449 69.54712326 -48.45605872 63.96254615 -48.44304848 58.37778282 C-48.44069097 56.33486809 -48.44338759 54.2919399 -48.4516716 52.2490406 C-48.50888553 37.03558886 -48.31295571 22.36108863 -37.40307617 10.47802734 C-26.52426501 0.54303999 -14.04674931 -0.01032021 0 0 Z M88.43286133 73.01708984 C87.0637561 73.59503799 87.0637561 73.59503799 85.66699219 74.18466187 C82.75125606 75.41829274 79.84209328 76.66664631 76.93286133 77.91552734 C75.00749405 78.73290941 73.08171628 79.54932525 71.15551758 80.36474609 C70.21684845 80.76331818 69.27817932 81.16189026 68.31106567 81.57254028 C66.43549333 82.36824319 64.55892547 83.16160365 62.68136597 83.9526062 C58.77208658 85.60842064 54.89565631 87.27114651 51.10913086 89.19335938 C41.30160342 93.99794906 32.49719334 94.06702969 21.80786133 93.91552734 C19.30352573 93.8914008 16.80037466 93.87629895 14.29592896 93.88510132 C12.75327617 93.88964852 11.21041159 93.87520789 9.66818237 93.83877563 C6.2018934 93.8405329 4.30170171 94.01243751 1.49584961 96.12792969 C-0.95855641 99.52391977 -1.19520577 102.25576437 -1.21240234 106.32519531 C-1.2187822 107.34990936 -1.22516205 108.37462341 -1.23173523 109.4303894 C-1.23284805 110.5366568 -1.23396088 111.64292419 -1.23510742 112.78271484 C-1.23843582 113.92080597 -1.24176422 115.05889709 -1.24519348 116.23147583 C-1.25025939 118.64064123 -1.25260191 121.04981365 -1.25244141 123.45898438 C-1.25462581 127.14383525 -1.27277964 130.82838579 -1.29174805 134.51318359 C-1.29468244 136.85302632 -1.29666693 139.19287047 -1.29760742 141.53271484 C-1.30479294 142.63493378 -1.31197845 143.73715271 -1.31938171 144.87277222 C-1.31630508 145.90379059 -1.31322845 146.93480896 -1.31005859 147.99707031 C-1.31148361 148.90069305 -1.31290863 149.8043158 -1.31437683 150.73532104 C-1.03512179 153.62142177 -0.38574686 155.71008582 0.93286133 158.29052734 C4.72305421 160.8173226 6.40695373 160.37728781 10.91333008 160.10693359 C35.84244059 159.14334507 54.13917261 165.3704938 76.3996582 176.13525391 C80.96033183 178.32529501 85.56910826 180.37742941 90.22973633 182.34521484 C90.91811584 182.64485138 91.60649536 182.94448792 92.31573486 183.25320435 C96.32862175 184.91827351 99.59053287 185.7753968 103.93286133 185.29052734 C106.78066752 183.05846303 107.78283799 181.74059736 108.93286133 178.29052734 C109.02513545 176.89305022 109.06341489 175.4916116 109.0665741 174.09109497 C109.07083908 173.23595306 109.07510406 172.38081116 109.07949829 171.49975586 C109.0790451 170.56462158 109.07859192 169.6294873 109.078125 168.66601562 C109.08148361 167.67874481 109.08484222 166.691474 109.08830261 165.67428589 C109.09781936 162.40312449 109.09975611 159.13201424 109.10083008 155.86083984 C109.10404221 153.59024026 109.10740624 151.31964089 109.11091614 149.04904175 C109.11690926 144.28594483 109.11875585 139.52286605 109.11816406 134.75976562 C109.11806244 128.65419361 109.13171381 122.54873789 109.14893627 116.44319344 C109.16005093 111.75234441 109.16208343 107.06152354 109.16155434 102.37066269 C109.16273529 100.11959304 109.16716351 97.86852268 109.1748867 95.61746597 C109.18467547 92.46950368 109.18181282 89.32179442 109.17578125 86.17382812 C109.18140076 85.24274231 109.18702026 84.31165649 109.19281006 83.35235596 C109.19081296 77.07525533 109.19081296 77.07525533 106.93286133 71.29052734 C100.52870814 67.02109189 94.83767356 70.24333525 88.43286133 73.01708984 Z M-28.06713867 239.29052734 C-30.60268162 242.88936249 -31.17326958 244.52107828 -30.56713867 248.91552734 C-28.86002668 252.75652932 -27.56335052 254.02463145 -24.06713867 256.29052734 C-21.00984926 256.87612358 -21.00984926 256.87612358 -17.65739441 256.77154541 C-15.71603607 256.7797934 -15.71603607 256.7797934 -13.73545837 256.78820801 C-12.30849846 256.77405315 -10.88154232 256.75951394 -9.45458984 256.74462891 C-7.94648265 256.74350017 -6.43837325 256.7441348 -4.93026733 256.74639893 C-0.8416578 256.747546 3.24648178 256.72403812 7.33498216 256.6961031 C11.60974634 256.67108815 15.88452145 256.66874737 20.15934753 256.66400146 C28.25183339 256.65157195 36.34410294 256.61875071 44.43649358 256.57860351 C53.65043025 256.53388502 62.86437729 256.51189857 72.07839549 256.49182177 C91.0300101 256.45001801 109.9814104 256.37886019 128.93286133 256.29052734 C128.93286133 249.69052734 128.93286133 243.09052734 128.93286133 236.29052734 C109.20089674 236.22109276 89.46896663 236.16754981 69.7369051 236.13509083 C60.57504939 236.11961925 51.41327095 236.09852417 42.25146484 236.06420898 C34.2664137 236.03431553 26.28141853 236.01495445 18.29631299 236.00826186 C14.06790215 236.00434951 9.83965143 235.99514892 5.61129189 235.97333717 C1.63127467 235.95297285 -2.34851649 235.94669341 -6.32858086 235.9512043 C-7.78908263 235.95037907 -9.24959197 235.94441297 -10.71004868 235.93291092 C-12.7050962 235.91796951 -14.70026506 235.92336498 -16.69535828 235.92976379 C-17.81164958 235.92699841 -18.92794088 235.92423304 -20.0780592 235.92138386 C-23.48216644 236.34178219 -25.32742253 237.2576986 -28.06713867 239.29052734 Z " fill="#2A8CFF" transform="translate(202.067138671875,192.70947265625)"/>
<path d="M0 0 C10.5536109 9.12249141 19.53220035 18.9128718 27.875 30.0625 C28.50148438 30.89394531 29.12796875 31.72539063 29.7734375 32.58203125 C31.55156549 35.03217475 33.22716287 37.52268146 34.875 40.0625 C35.23916016 40.62146973 35.60332031 41.18043945 35.97851562 41.75634766 C48.06224115 60.55929698 55.97109419 81.31218597 60.875 103.0625 C61.05144043 103.81144531 61.22788086 104.56039062 61.40966797 105.33203125 C65.10848957 121.60831262 64.16437168 138.48224455 63.875 155.0625 C62.6375 154.77375 61.4 154.485 60.125 154.1875 C48.75397105 151.70353737 37.73297535 150.68791924 26.125 150.4375 C24.63800086 150.39920539 23.15102117 150.36014758 21.6640625 150.3203125 C18.06788911 150.22560095 14.47156524 150.14113091 10.875 150.0625 C10.83761719 148.75539062 10.80023438 147.44828125 10.76171875 146.1015625 C9.60059494 112.25033761 0.84783747 80.45060152 -21.125 54.0625 C-22.18654297 52.75345703 -22.18654297 52.75345703 -23.26953125 51.41796875 C-43.62985157 27.43132051 -76.37255499 12.57575705 -107.38183594 9.2734375 C-123.61170186 8.02543072 -140.30173523 7.91573906 -156.125 12.0625 C-157.29651611 12.36051514 -157.29651611 12.36051514 -158.49169922 12.66455078 C-175.47234454 17.08435221 -190.94299296 23.60610003 -205.125 34.0625 C-205.96160156 34.67609375 -206.79820312 35.2896875 -207.66015625 35.921875 C-237.97366449 59.17344075 -252.94198082 92.90673127 -258.125 130.0625 C-258.9434601 136.71582444 -259.57434732 143.38221354 -260.125 150.0625 C-260.93018066 150.08231934 -261.73536133 150.10213867 -262.56494141 150.12255859 C-265.62554278 150.20184425 -268.68582982 150.288554 -271.74609375 150.37988281 C-273.69255772 150.43584839 -275.63925043 150.48367313 -277.5859375 150.53125 C-292.14498994 150.93050555 -292.14498994 150.93050555 -306.27587891 154.13037109 C-309.125 155.0625 -309.125 155.0625 -313.125 155.0625 C-314.14170546 118.44546193 -307.54628132 84.40545077 -290.125 52.0625 C-289.80418457 51.45567383 -289.48336914 50.84884766 -289.15283203 50.22363281 C-280.56867037 34.06674957 -269.01337648 20.9300215 -256.125 8.0625 C-255.49980469 7.39089844 -254.87460938 6.71929687 -254.23046875 6.02734375 C-227.08117541 -22.67017813 -185.58273225 -39.5269486 -147.125 -44.9375 C-146.47909912 -45.0310376 -145.83319824 -45.1245752 -145.16772461 -45.22094727 C-91.80500461 -52.1347644 -40.52289077 -34.42729798 0 0 Z " fill="#2A8BFF" transform="translate(380.125,91.9375)"/>
<path d="M0 0 C0 47.52 0 95.04 0 144 C-19.36182292 139.85103795 -34.80238223 132.8428898 -46 116 C-53.92952972 102.29051187 -56.54289543 90.11353371 -56.50097656 74.38647461 C-56.50000814 71.83396047 -56.54166046 69.28450139 -56.5859375 66.73242188 C-56.72914674 47.33355662 -51.10392952 31.3627263 -37.625 17.0625 C-27.62498433 7.73722588 -13.93241002 0 0 0 Z " fill="#05B8FF" transform="translate(88,258)"/>
<path d="M0 0 C17.48210661 1.94245629 31.61159125 9.53065277 43 23 C53.57032741 37.09376988 56.85679679 51.83160852 56.59692383 69.10058594 C56.56242251 71.6306829 56.57639422 74.15730055 56.59570312 76.6875 C56.57860373 96.31341887 50.84031796 112.63575833 37 127 C25.79655674 136.72310842 14.61825643 140.86751648 0 144 C0 96.48 0 48.96 0 0 Z " fill="#4E5FFF" transform="translate(424,258)"/>
<path d="M0 0 C0 47.85 0 95.7 0 145 C-26.62414579 145 -26.62414579 145 -33.84375 138.28515625 C-39.82853777 131.83457132 -40.30330386 125.91890089 -40.32226562 117.40161133 C-40.33219543 116.33429779 -40.34212524 115.26698425 -40.35235596 114.16732788 C-40.38154752 110.63886933 -40.39519526 107.11059069 -40.40625 103.58203125 C-40.4177583 101.12448625 -40.4292737 98.66694129 -40.4407959 96.20939636 C-40.46180194 91.05552333 -40.47349601 85.90171255 -40.48046875 80.74780273 C-40.49142776 74.15819291 -40.53946493 67.56941179 -40.59641266 60.98006153 C-40.63374682 55.90211113 -40.64408095 50.8243586 -40.6471405 45.74628258 C-40.65317762 43.31788293 -40.66918091 40.8894861 -40.69551086 38.46122169 C-40.72980166 35.0553027 -40.72583244 31.65138511 -40.71289062 28.24536133 C-40.73132019 27.25123734 -40.74974976 26.25711334 -40.76873779 25.23286438 C-40.68158414 17.87381819 -38.52052895 12.80721128 -34 7 C-24.33077446 -2.10806133 -13.25622756 0 0 0 Z " fill="#436DFF" transform="translate(408,257)"/>
<path d="M0 0 C26.8164458 0 26.8164458 0 33.66359806 6.37956429 C39.35173268 13.27663336 40.73489673 20.40583238 40.63110352 29.10595703 C40.63825882 30.16745972 40.64541412 31.2289624 40.65278625 32.32263184 C40.66957722 35.80147462 40.65032829 39.27901145 40.62890625 42.7578125 C40.6297357 45.19058335 40.63219795 47.62335415 40.63621521 50.05612183 C40.6390665 55.14159112 40.62443436 60.22661835 40.59692383 65.31201172 C40.56280669 71.81972905 40.5688782 78.32665821 40.5875864 84.83441353 C40.5981693 89.85312433 40.58920727 94.87165268 40.57420158 99.89034653 C40.5690313 102.28964572 40.56948751 104.68896405 40.57574654 107.08826065 C40.58121553 110.44353291 40.56076914 113.79768726 40.53344727 117.15283203 C40.53997314 118.13694061 40.54649902 119.12104919 40.55322266 120.13497925 C40.45565088 127.20570871 38.92661955 132.52762389 34.32421875 137.98828125 C33.78410156 138.42527344 33.24398437 138.86226562 32.6875 139.3125 C32.15511719 139.76238281 31.62273437 140.21226562 31.07421875 140.67578125 C20.21073026 147.6112287 14.97937847 145 0 145 C0 97.15 0 49.3 0 0 Z " fill="#11AAFF" transform="translate(104,257)"/>
<path d="M0 0 C0 25.74 0 51.48 0 78 C-3.46137636 77.30772473 -5.9804499 76.7290503 -9.13183594 75.43359375 C-10.29764191 74.95805054 -10.29764191 74.95805054 -11.48699951 74.47290039 C-12.31113342 74.13121826 -13.13526733 73.78953613 -13.984375 73.4375 C-14.84057434 73.0861499 -15.69677368 72.7347998 -16.57891846 72.37280273 C-18.38178212 71.63186267 -20.18374728 70.88873302 -21.98486328 70.14355469 C-24.75204091 68.99915596 -27.52224271 67.8623393 -30.29296875 66.7265625 C-32.04445368 66.00565241 -33.79576207 65.28431323 -35.546875 64.5625 C-36.37910583 64.22081787 -37.21133667 63.87913574 -38.06878662 63.52709961 C-43.88416679 61.11583321 -43.88416679 61.11583321 -45 60 C-45.08874135 56.89748799 -45.11518455 53.8173188 -45.09765625 50.71484375 C-45.0962413 49.78402481 -45.09482635 48.85320587 -45.09336853 47.8941803 C-45.08775172 44.90858809 -45.0751964 41.92306971 -45.0625 38.9375 C-45.05748716 36.91862087 -45.05292388 34.89974057 -45.04882812 32.88085938 C-45.03777683 27.92054428 -45.02050095 22.96028468 -45 18 C-36.34702602 13.92661478 -27.62993158 10.07597612 -18.79394531 6.42041016 C-16.83935669 5.61022571 -14.88845939 4.79153558 -12.9375 3.97265625 C-11.68510973 3.45260959 -10.43251345 2.9330587 -9.1796875 2.4140625 C-7.50495361 1.71724365 -7.50495361 1.71724365 -5.79638672 1.00634766 C-3 0 -3 0 0 0 Z " fill="#2E87FF" transform="translate(296,281)"/>
<path d="M0 0 C6.6 0 13.2 0 20 0 C20 11.88 20 23.76 20 36 C13.4 36 6.8 36 0 36 C0 24.12 0 12.24 0 0 Z " fill="#2493FF" transform="translate(216,302)"/>
</svg>
